# xmcd CD database file
#
# Track frame offsets:
#	150
#	13720
#	32490
#	46245
#	61745
#	77880
#	94820
#	109940
#	125990
#	148075
#	161865
#	182855
#	200625
#	213845
#	230175
#	249417
#	262899
#	286386
#	301388
#	315935
#	331857
#
# Disc length: 4625 seconds
#
# Revision: 0
# Processed by: cddbd v1.5PL3 Copyright (c) Steve Scherf et al.
# Submitted via: CDex 1.51
#
DISCID=30120f15
DTITLE=Tim McGraw - Greatest Hits
DYEAR=1900
DGENRE=Country
TTITLE0=Indian Outlaw
TTITLE1=Don't take the Girl
TTITLE2=She never lets it go to her heart
TTITLE3=I like it I love it
TTITLE4=Just to see you smile
TTITLE5=It's your love /w Faith Hill
TTITLE6=Where the green grass grows
TTITLE7=For a little while
TTITLE8=Please remember me
TTITLE9=Something like that
TTITLE10=My best friend
TTITLE11=Maybe we should sleep on it
TTITLE12=Down on the farm
TTITLE13=My next thirty years
TTITLE14=Let's make love w/ Faith Hill
TTITLE15=Renegade
TTITLE16=When she wakes up
TTITLE17=Can't be really gone
TTITLE18=That's just me
TTITLE19=All I want is a life
TTITLE20=You got the wrong man\
EXTD=
EXTT0=
EXTT1=
EXTT2=
EXTT3=
EXTT4=
EXTT5=
EXTT6=
EXTT7=
EXTT8=
EXTT9=
EXTT10=
EXTT11=
EXTT12=
EXTT13=
EXTT14=
EXTT15=
EXTT16=
EXTT17=
EXTT18=
EXTT19=
EXTT20=
PLAYORDER=
